<?xml version="1.0" encoding="UTF-8"?>
<!DOCTYPE svg PUBLIC "-//W3C//DTD SVG 1.1//EN" "http://www.w3.org/Graphics/SVG/1.1/DTD/svg11.dtd">
<svg xmlns="http://www.w3.org/2000/svg" style="background: transparent; background-color: transparent; color-scheme: light dark;" xmlns:xlink="http://www.w3.org/1999/xlink" version="1.1" width="404px" height="219px" viewBox="0 0 404 219"><defs><style type="text/css">@import url(https://fonts.googleapis.com/css2?family=Architects+Daughter:wght@400;500);&#xa;</style></defs><g><g data-cell-id="0"><g data-cell-id="1"><g data-cell-id="RoDrshjXzHo9yQNO4CrP-25"><g><path d="M 109.5 109.5 L 79.5 109.5 L 79.5 49.5 L 289.5 49.5" fill="none" stroke="#ffffff" stroke-width="1.5" stroke-miterlimit="10" pointer-events="stroke" style="stroke: rgb(255, 255, 255);"/></g></g><g data-cell-id="RoDrshjXzHo9yQNO4CrP-1"><g><path d="M 109.5 94.5 L 139.5 109.5 L 109.5 124.5 Z" fill-opacity="0" fill="#ffffff" stroke="#ffffff" stroke-width="1.5" stroke-miterlimit="10" pointer-events="all" style="fill: light-dark(#ffffff, var(--ge-dark-color, #121212)); stroke: rgb(255, 255, 255);"/></g></g><g data-cell-id="RoDrshjXzHo9yQNO4CrP-3"><g><path d="M 147 109.5 L 139.5 109.5" fill="none" stroke="#ffffff" stroke-width="1.5" stroke-miterlimit="10" pointer-events="stroke" style="stroke: rgb(255, 255, 255);"/></g></g><g data-cell-id="RoDrshjXzHo9yQNO4CrP-6"><g><path d="M 207 109.5 L 237 109.5" fill="none" stroke="#ffffff" stroke-width="1.5" stroke-miterlimit="10" pointer-events="stroke" style="stroke: rgb(255, 255, 255);"/></g></g><g data-cell-id="RoDrshjXzHo9yQNO4CrP-2"><g><rect x="147" y="102" width="60" height="15" fill="none" stroke="none" pointer-events="all"/><path d="M 147 109.5 L 157.8 109.5 L 160.2 102 L 165 117 L 169.8 102 L 174.6 117 L 179.4 102 L 184.2 117 L 189 102 L 193.8 117 L 196.2 109.5 L 207 109.5" fill="none" stroke="#ffffff" stroke-width="1.5" stroke-miterlimit="10" pointer-events="all" style="stroke: rgb(255, 255, 255);"/></g></g><g data-cell-id="RoDrshjXzHo9yQNO4CrP-28"><g><path d="M 214.5 169.5 L 214.5 172.32" fill="none" stroke="#ffffff" stroke-width="1.5" stroke-miterlimit="10" pointer-events="stroke" style="stroke: rgb(255, 255, 255);"/><path d="M 214.5 182.82 L 209.25 172.32 L 219.75 172.32 Z" fill-opacity="0" fill="#ffffff" stroke="#ffffff" stroke-width="1.5" stroke-miterlimit="10" pointer-events="all" style="fill: rgb(255, 255, 255); stroke: rgb(255, 255, 255);"/></g></g><g data-cell-id="RoDrshjXzHo9yQNO4CrP-4"><g><rect x="184.5" y="124.5" width="60" height="30" fill="none" stroke="none" transform="rotate(90,214.5,139.5)" pointer-events="all"/><path d="M 184.5 139.5 L 211.5 139.5 M 217.5 124.5 L 217.5 154.5 M 211.5 124.5 L 211.5 154.5 M 217.5 139.5 L 244.5 139.5" fill="none" stroke="#ffffff" stroke-width="1.5" stroke-miterlimit="10" transform="rotate(90,214.5,139.5)" pointer-events="all" style="stroke: rgb(255, 255, 255);"/></g></g><g data-cell-id="RoDrshjXzHo9yQNO4CrP-24"><g><path d="M 267 109.5 L 289.5 109.5" fill="none" stroke="#ffffff" stroke-width="1.5" stroke-miterlimit="10" pointer-events="stroke" style="stroke: rgb(255, 255, 255);"/></g></g><g data-cell-id="RoDrshjXzHo9yQNO4CrP-5"><g><path d="M 237 94.5 L 267 109.5 L 237 124.5 Z" fill-opacity="0" fill="#ffffff" stroke="#ffffff" stroke-width="1.5" stroke-miterlimit="10" pointer-events="all" style="fill: light-dark(#ffffff, var(--ge-dark-color, #121212)); stroke: rgb(255, 255, 255);"/></g></g><g data-cell-id="RoDrshjXzHo9yQNO4CrP-30"><g><path d="M 319.5 79.5 L 342 79.5" fill="none" stroke="#ffffff" stroke-width="1.5" stroke-miterlimit="10" pointer-events="stroke" style="stroke: rgb(255, 255, 255);"/></g></g><g data-cell-id="RoDrshjXzHo9yQNO4CrP-23"><g><path d="M 244.5 94.5 L 259.5 64.5 L 349.5 64.5 L 364.5 94.5 Z" fill-opacity="0" fill="#ffffff" stroke="#ffffff" stroke-width="1.5" stroke-miterlimit="10" transform="rotate(90,304.5,79.5)" pointer-events="all" style="fill: light-dark(#ffffff, var(--ge-dark-color, #121212)); stroke: rgb(255, 255, 255);"/></g></g><g data-cell-id="RoDrshjXzHo9yQNO4CrP-26"><g><path d="M 57 49.5 L 78 49.5" fill="none" stroke="#ffffff" stroke-width="1.5" stroke-miterlimit="10" pointer-events="stroke" style="stroke: rgb(255, 255, 255);"/><ellipse cx="79.5" cy="49.5" rx="1.5" ry="1.5" fill-opacity="0" fill="#ffffff" stroke="#ffffff" stroke-width="1.5" pointer-events="all" style="fill: rgb(255, 255, 255); stroke: rgb(255, 255, 255);"/></g></g><g data-cell-id="RoDrshjXzHo9yQNO4CrP-29"><g><path d="M 19.5 49.5 L 57 49.5" fill="none" stroke="#ffffff" stroke-width="1.5" stroke-miterlimit="10" stroke-dasharray="4.5 4.5" pointer-events="stroke" style="stroke: rgb(255, 255, 255);"/></g></g><g data-cell-id="RoDrshjXzHo9yQNO4CrP-31"><g><path d="M 342 79.5 L 379.5 79.5" fill="none" stroke="#ffffff" stroke-width="1.5" stroke-miterlimit="10" stroke-dasharray="4.5 4.5" pointer-events="stroke" style="stroke: rgb(255, 255, 255);"/></g></g></g></g></g></svg>